# xmcd
#
# Track frame offsets:
#	150
#	8619
#	27631
#	43383
#	59940
#	76024
#	90223
#	106678
#	116798
#	128773
#	146181
#	162778
#	181797
#	197576
#	213333
#	228414
#	242660
#	258135
#	273586
#	297374
#
# Disc length: 4192 seconds
#
# Revision: 4
# Processed by: cddbd v1.5.2PL0 Copyright (c) Steve Scherf et al.
# Submitted via: EZCDAudioConverter 7.0.0.1
#
DISCID=17105e14
DTITLE=Various Artist - Lielā Ziemassvētku Izlase Nr.2
DYEAR=2005
DGENRE=Pop
TTITLE0=COSMOS - Circenīša Ziemassvētki
TTITLE1=PAULA ĶIETE - Paldies, Mīļie
TTITLE2=LAURIS REINIKS UN DZEGUZĪTE - Visa pasaule ir atkal kopā 
TTITLE3=J.MEDIŅA MŪZIKAS SKOLAS ZĒNU KORIS - Zvaniņš skan
TTITLE4=IGO UN KNĪPAS UN KNAUĶI - Labais burvis
TTITLE5=MAIJA LŪSĒNA - Ziemassvētku vakarā
TTITLE6=BET BET UN JMMS ZĒNU KORIS - Burvīga nakts
TTITLE7=JMMS ZĒNU KORIS - Pošam visu greznā rotā
TTITLE8=IEVA UN IGO - Par klusumu
TTITLE9=NIKS MATVEJEVS UN IEVA AKURĀTERE - Lūgšana Ziemassvētku vakarā
TTITLE10=HARALDS SĪMANIS UN IEVA AKURĀTERE - Mēs aizsniegam
TTITLE11=GANS UN AVIS - Pār mazo ciemu ielejā
TTITLE12=DAINIS PORGANTS - Balts sniedziņš snieg uz skujiņām
TTITLE13=ZĒNU KORIS - Kā sniegi kalnu galotnēs
TTITLE14=JĀNIS SPROĢIS UN RĪGAS DOMA ZĒNU KORIS - Ziemeļblāzmas romance
TTITLE15=DZINTARS ČĪČA - Ziemassvētki
TTITLE16=KRISS NORMANS UN RĪGAS DOMA ZĒNU KORIS - Kriss Normans un Rīgas Doma 
TTITLE16=zēnu koris
TTITLE17=DRAMA - Kad latvieši iet Dievu lūgt
TTITLE18=ANCE, ZIGFRĪDS, MĀRTIŅŠ UN JMMSZK - Mēs varam līdzās būt
TTITLE19=KRISTĪNA - Klusa nakts, svēta nakts
EXTD=
EXTT0=
EXTT1=
EXTT2=
EXTT3=
EXTT4=
EXTT5=
EXTT6=
EXTT7=
EXTT8=
EXTT9=
EXTT10=
EXTT11=
EXTT12=
EXTT13=
EXTT14=
EXTT15=
EXTT16=
EXTT17=
EXTT18=
EXTT19=
PLAYORDER=
